HIERARCHY
ROOT Pelvis
{
	OFFSET 0.000000 0.000000 0.000000
	CHANNELS 6 Xposition Yposition Zposition Zrotation Yrotation Xrotation 
	JOINT Left_hip
	{
		OFFSET 0.067986 -0.089946 -0.007639
		CHANNELS 3 Zrotation Yrotation Xrotation
		JOINT Left_knee
		{
			OFFSET 0.036308 -0.388288 -0.004016
			CHANNELS 3 Zrotation Yrotation Xrotation
			JOINT Left_ankle
			{
				OFFSET -0.012264 -0.413250 -0.042878
				CHANNELS 3 Zrotation Yrotation Xrotation
				JOINT Left_foot
				{
					OFFSET 0.024043 -0.058563 0.118570
					CHANNELS 3 Zrotation Yrotation Xrotation
					End Site
					{
						OFFSET 0.000000 0.000000 0.000000
					}
				}
			}
		}
	}
	JOINT Right_hip
	{
		OFFSET -0.065648 -0.089374 -0.003858
		CHANNELS 3 Zrotation Yrotation Xrotation
		JOINT Right_knee
		{
			OFFSET -0.042132 -0.395021 -0.006361
			CHANNELS 3 Zrotation Yrotation Xrotation
			JOINT Right_ankle
			{
				OFFSET 0.014805 -0.413264 -0.041054
				CHANNELS 3 Zrotation Yrotation Xrotation
				JOINT Right_foot
				{
					OFFSET -0.021758 -0.049013 0.121832
					CHANNELS 3 Zrotation Yrotation Xrotation
					End Site
					{
						OFFSET 0.000000 0.000000 0.000000
					}
				}
			}
		}
	}
	JOINT Spine1
	{
		OFFSET -0.002755 0.104406 -0.022277
		CHANNELS 3 Zrotation Yrotation Xrotation
		JOINT Spine2
		{
			OFFSET 0.004136 0.129393 -0.002186
			CHANNELS 3 Zrotation Yrotation Xrotation
			JOINT Spine3
			{
				OFFSET 0.001906 0.049304 0.025578
				CHANNELS 3 Zrotation Yrotation Xrotation
				JOINT Neck
				{
					OFFSET -0.004620 0.210958 -0.044063
					CHANNELS 3 Zrotation Yrotation Xrotation
					JOINT Head
					{
						OFFSET 0.003833 0.067393 0.052435
						CHANNELS 3 Zrotation Yrotation Xrotation
						End Site
						{
							OFFSET 0.000000 0.000000 0.000000
						}
					}
				}
				JOINT Left_collar
				{
					OFFSET 0.070771 0.116689 -0.037192
					CHANNELS 3 Zrotation Yrotation Xrotation
					JOINT Left_shoulder
					{
						OFFSET 0.080652 0.031596 -0.005617
						CHANNELS 3 Zrotation Yrotation Xrotation
						JOINT Left_elbow
						{
							OFFSET 0.262654 -0.015020 -0.027939
							CHANNELS 3 Zrotation Yrotation Xrotation
							JOINT Left_wrist
							{
								OFFSET 0.250438 0.010062 -0.000990
								CHANNELS 3 Zrotation Yrotation Xrotation
								JOINT Left_palm
								{
									OFFSET 0.081198 -0.010037 -0.013706
									CHANNELS 3 Zrotation Yrotation Xrotation
									End Site
									{
										OFFSET 0.000000 0.000000 0.000000
									}
								}
							}
						}
					}
				}
				JOINT Right_collar
				{
					OFFSET -0.072972 0.115556 -0.040762
					CHANNELS 3 Zrotation Yrotation Xrotation
					JOINT Right_shoulder
					{
						OFFSET -0.082917 0.031841 -0.006673
						CHANNELS 3 Zrotation Yrotation Xrotation
						JOINT Right_elbow
						{
							OFFSET -0.252882 -0.013790 -0.020410
							CHANNELS 3 Zrotation Yrotation Xrotation
							JOINT Right_wrist
							{
								OFFSET -0.255570 0.009163 -0.005138
								CHANNELS 3 Zrotation Yrotation Xrotation
								JOINT Right_palm
								{
									OFFSET -0.080804 -0.007282 -0.010415
									CHANNELS 3 Zrotation Yrotation Xrotation
									End Site
									{
										OFFSET 0.000000 0.000000 0.000000
									}
								}
							}
						}
					}
				}
			}
		}
	}
}
MOTION
Frames: 15
Frame Time: 0.100000
0.000000 0.000000 0.000000 174.426829 25.032525 -17.130259 8.483309 4.859170 7.655337 -4.293184 -18.015337 -2.600696 -8.085509 12.674848 -9.623771 6.341389 -0.161861 1.227115 -5.915604 -6.384801 6.824538 5.645726 11.859885 0.152235 15.613096 -13.279710 -11.275561 -14.635793 10.512919 1.457582 2.062083 1.554496 7.112494 0.119026 -2.956357 0.873069 1.171330 -0.005791 1.915888 -1.910814 4.150692 -4.699356 0.206740 0.111192 -9.573384 -6.034958 0.257768 -8.019235 -0.500337 3.589905 -12.417273 1.686242 -6.734862 -6.728622 0.438571 -6.228004 22.520442 -8.065466 -2.682717 -14.527432 5.954967 0.413704 -5.918114 0.675750 -5.624859 -10.565951 -2.937929 6.406653 -7.953760 1.287354 2.825177 18.124867 8.793693 4.567658 -5.224638 
-0.000228 -0.000086 0.000283 174.434840 25.044026 -17.034207 8.456785 4.853685 7.622450 -4.263443 -18.017653 -2.691846 -8.089280 12.696341 -9.584012 6.370935 -0.149702 1.217658 -5.930103 -6.402350 6.824819 5.628382 11.873968 0.003166 15.675837 -13.323477 -11.234401 -14.729293 10.562294 1.419123 2.084038 1.583804 7.108264 0.109023 -2.940715 0.890464 1.171023 0.008587 1.947383 -1.927161 4.162736 -4.716483 0.228956 0.115813 -9.669853 -5.993673 0.289864 -8.051295 -0.423588 3.626442 -12.447171 1.644712 -6.736988 -6.723719 0.488431 -6.229286 22.648178 -8.081748 -2.708562 -14.543496 5.946004 0.377749 -5.934939 0.686956 -5.679258 -10.528716 -2.906264 6.470303 -7.861165 1.252197 2.860516 18.298008 8.821230 4.593231 -5.260388 
-0.000479 -0.000193 0.000777 174.433857 25.050292 -16.991406 8.453752 4.851147 7.625663 -4.254451 -18.006354 -2.736632 -8.090408 12.699845 -9.576242 6.381692 -0.158050 1.217228 -5.933566 -6.404428 6.810279 5.631676 11.862729 -0.005811 15.679198 -13.317761 -11.233808 -14.735720 10.570312 1.425114 2.090610 1.592860 7.091942 0.118306 -2.923133 0.895113 1.176120 0.023037 1.963076 -1.905075 4.172925 -4.643791 0.228397 0.117439 -9.579796 -5.974815 0.318557 -8.063817 -0.450624 3.601251 -12.454551 1.675821 -6.767179 -6.773112 0.477080 -6.209959 22.571487 -8.073852 -2.703798 -14.515550 5.936835 0.377385 -5.947472 0.671489 -5.623323 -10.570588 -2.918966 6.427559 -7.902797 1.283597 2.843688 18.303470 8.804528 4.586023 -5.246114 
-0.000697 -0.000232 0.001153 174.434398 25.071602 -17.012803 8.455514 4.845979 7.687569 -4.258533 -18.023460 -2.738692 -8.062083 12.690035 -9.615312 6.358065 -0.136847 1.220977 -5.948768 -6.397872 6.894045 5.633943 11.850803 -0.035349 15.619028 -13.309727 -11.259328 -14.627459 10.535367 1.475959 2.088056 1.596968 7.045546 0.131086 -2.924773 0.918406 1.169583 0.019417 1.974279 -1.839874 4.149617 -4.421392 0.222824 0.087154 -9.407794 -5.981907 0.343535 -8.049004 -0.500612 3.545433 -12.440703 1.650959 -6.781624 -6.744283 0.290517 -6.156122 22.458634 -8.041286 -2.671688 -14.494989 5.928714 0.358484 -5.941707 0.680287 -5.563431 -10.588893 -2.935789 6.426829 -7.970655 1.409429 2.773963 18.131015 8.770700 4.569346 -5.220217 
-0.000957 -0.000278 0.001526 174.431286 25.103064 -16.995995 8.445319 4.834974 7.690574 -4.261336 -18.032417 -2.724633 -8.034706 12.678382 -9.644545 6.329144 -0.123920 1.225389 -5.955312 -6.392784 6.915223 5.632106 11.835549 -0.035412 15.590220 -13.315493 -11.290879 -14.583963 10.524494 1.509271 2.080952 1.587806 7.038374 0.137651 -2.935566 0.896638 1.162486 0.003593 1.970576 -1.791478 4.093354 -4.350968 0.239118 0.024338 -9.304973 -6.019370 0.372275 -8.039544 -0.531650 3.522015 -12.449989 1.655291 -6.761323 -6.750101 0.144507 -6.108384 22.403009 -8.017502 -2.652955 -14.470205 5.954483 0.323602 -5.950859 0.689694 -5.566490 -10.596423 -2.976749 6.394432 -8.021068 1.498682 2.735689 18.074467 8.744859 4.560756 -5.188269 
-0.001291 -0.000302 0.001732 174.438697 25.038899 -16.948371 8.443536 4.860769 7.693240 -4.267422 -18.009990 -2.730398 -8.024874 12.682014 -9.678524 6.323328 -0.135094 1.235541 -5.957290 -6.382586 6.895120 5.625196 11.850904 -0.042550 15.593351 -13.285742 -11.296323 -14.580494 10.503699 1.516937 2.085186 1.577093 7.048042 0.143412 -2.935927 0.869747 1.159751 -0.003767 1.963926 -1.770450 4.042348 -4.338936 0.241697 -0.022856 -9.271656 -6.038733 0.406566 -8.019217 -0.592734 3.558121 -12.416343 1.671472 -6.731020 -6.678113 0.216064 -6.116338 22.470664 -8.048818 -2.663568 -14.519267 5.963549 0.310987 -5.960336 0.697278 -5.544320 -10.612449 -3.008110 6.389085 -8.011731 1.421035 2.754246 18.111852 8.769335 4.569690 -5.207231 
-0.001647 -0.000315 0.001879 174.463549 24.936295 -16.883107 8.427081 4.890151 7.693163 -4.269967 -17.950389 -2.759771 -7.982342 12.693185 -9.706265 6.288834 -0.140827 1.235005 -5.969787 -6.368124 6.832006 5.620086 11.870659 -0.032584 15.581732 -13.217415 -11.287075 -14.538636 10.465366 1.531060 2.108686 1.570565 7.052422 0.145704 -2.917308 0.851904 1.152280 -0.002757 1.964056 -1.758408 4.018091 -4.274698 0.228634 -0.015631 -9.217576 -6.089577 0.448559 -8.001737 -0.730042 3.519350 -12.353058 1.681896 -6.778820 -6.589054 0.363784 -6.152466 22.465784 -8.080640 -2.677406 -14.515139 6.000151 0.281715 -5.957610 0.744109 -5.486775 -10.604995 -3.025936 6.386875 -7.961538 1.307195 2.796645 18.218614 8.788871 4.589205 -5.225148 
-0.002016 -0.000319 0.002021 174.474723 24.924194 -16.880726 8.395780 4.900148 7.721631 -4.263213 -17.928451 -2.770526 -7.917428 12.669527 -9.717978 6.207162 -0.105624 1.225152 -5.999037 -6.357883 6.843994 5.618922 11.847583 -0.024433 15.525068 -13.184537 -11.281693 -14.414442 10.429282 1.585670 2.133723 1.546914 7.081834 0.157323 -2.932753 0.830325 1.138961 -0.025467 1.967511 -1.715801 3.981127 -4.117622 0.201951 -0.045926 -9.032875 -6.169227 0.471838 -7.988798 -0.838935 3.430019 -12.330776 1.626609 -6.757158 -6.501498 0.301672 -6.147624 22.459043 -8.078960 -2.669427 -14.500320 6.067070 0.243441 -5.974717 0.775100 -5.427795 -10.606554 -3.056457 6.379147 -8.050561 1.299113 2.792336 18.171243 8.791839 4.598932 -5.210438 
-0.002269 -0.000394 0.002560 174.471296 24.866667 -16.910019 8.419578 4.917768 7.832469 -4.253701 -17.933996 -2.801003 -7.900763 12.692241 -9.773042 6.203421 -0.095547 1.239890 -5.997739 -6.339531 6.930343 5.622569 11.872862 -0.050462 15.489928 -13.154284 -11.289848 -14.333156 10.398592 1.617009 2.113345 1.543305 7.026050 0.197447 -2.948607 0.861575 1.143459 -0.044775 1.987823 -1.622690 3.945086 -3.920273 0.203438 -0.100780 -8.886972 -6.204518 0.557005 -7.954708 -0.895085 3.440723 -12.311358 1.637992 -6.779850 -6.464259 0.339236 -6.121848 22.458701 -8.111426 -2.682192 -14.543765 6.127931 0.154945 -5.998178 0.838742 -5.406495 -10.595673 -3.136367 6.471095 -8.100989 1.242506 2.793781 18.108244 8.831587 4.613829 -5.228301 
-0.002452 -0.000476 0.003125 174.494170 24.769701 -16.888794 8.429331 4.955297 7.878836 -4.254395 -17.909011 -2.796572 -7.901903 12.707457 -9.815680 6.239875 -0.041171 1.211701 -5.997082 -6.313948 6.942715 5.629840 11.932135 -0.049651 15.507912 -13.151894 -11.319860 -14.359716 10.441802 1.600815 2.091967 1.522058 6.926498 0.213341 -2.964187 0.847381 1.126120 -0.082469 2.013277 -1.544521 3.960388 -3.762781 0.172607 -0.112521 -8.734090 -6.231162 0.676880 -7.939926 -0.880040 3.484595 -12.308763 1.596363 -6.842067 -6.497665 0.346261 -6.063065 22.453633 -8.153209 -2.692185 -14.592224 6.155174 -0.000509 -6.061125 0.890406 -5.368266 -10.488837 -3.131177 6.928466 -8.071081 1.256363 2.788360 17.888612 8.874323 4.623765 -5.224043 
-0.002549 -0.000545 0.003532 174.533284 24.625901 -16.897329 8.436299 5.000517 7.983602 -4.239404 -17.814659 -2.807696 -7.871796 12.702108 -9.851231 6.233629 0.000669 1.195314 -6.008624 -6.271529 6.991130 5.646735 11.969160 -0.064196 15.480439 -13.074661 -11.316592 -14.305893 10.426225 1.646112 2.089586 1.517342 6.859796 0.242154 -2.960788 0.867889 1.109737 -0.086114 2.001042 -1.510196 3.951930 -3.619657 0.073002 -0.188292 -8.515463 -6.377333 0.734491 -7.912676 -1.019780 3.483133 -12.266444 1.568198 -6.925368 -6.520709 0.304740 -6.043303 22.398432 -8.282185 -2.755053 -14.685007 6.304303 -0.035777 -6.098840 0.906419 -5.252524 -10.555284 -3.427347 7.273900 -8.500563 1.063053 2.839932 17.699862 9.060711 4.681526 -5.314221 
-0.002283 -0.000616 0.003817 174.527456 24.462511 -16.996050 8.497442 5.033993 8.132373 -4.206385 -17.710055 -2.804659 -7.934517 12.662046 -9.923257 6.369331 0.036495 1.242434 -5.966216 -6.198942 7.078400 5.673774 11.959724 -0.041932 15.456893 -12.986502 -11.321968 -14.287803 10.385974 1.709762 2.040206 1.526249 6.882815 0.327193 -3.008406 1.098451 1.133511 -0.115793 1.981445 -1.466281 4.066830 -3.697854 -0.061682 -0.239713 -8.454726 -6.749046 0.651957 -7.754887 -1.281905 3.652814 -12.034485 1.579922 -7.227403 -6.420277 0.198136 -6.052357 22.428035 -8.557620 -2.909084 -14.994584 6.679986 0.004036 -6.091060 0.998714 -5.236531 -10.578559 -4.098819 8.260786 -9.106786 0.941487 2.973474 17.335480 9.384294 4.782736 -5.496273 
-0.001826 -0.000557 0.003562 174.575621 24.313135 -17.020681 8.485318 4.985122 8.024388 -4.274863 -17.446590 -2.507678 -7.854681 12.511106 -10.001989 6.435113 0.213357 1.203937 -6.000239 -6.069214 7.023090 5.759963 11.947015 0.065992 15.404929 -12.859035 -11.325008 -14.290160 10.354393 1.748698 1.954099 1.527170 6.929840 0.410513 -3.058847 1.242328 1.141135 -0.191985 1.975000 -1.391686 4.182431 -3.796420 -0.240171 -0.162959 -8.187392 -7.388892 0.702327 -7.600696 -1.995021 3.518920 -11.914228 1.806043 -8.014947 -7.370797 0.571055 -6.080560 20.943265 -8.942424 -3.126428 -14.865240 7.220267 -0.136992 -6.153443 1.279466 -4.964765 -10.500707 -5.562334 10.369686 -10.647014 0.249169 3.329655 16.316950 9.892356 4.980883 -5.622545 
-0.002473 -0.000252 0.001757 174.703033 24.145366 -17.055117 8.252166 4.879860 7.756421 -4.366419 -16.932493 -1.954485 -7.551715 12.017682 -10.045638 6.500147 1.082704 1.004204 -6.135333 -5.768997 6.891867 5.753733 11.657228 0.217529 15.164249 -12.637572 -11.143243 -14.124793 10.080484 1.729895 1.779030 1.514691 7.178557 0.439885 -3.109578 1.585546 1.078964 -0.403562 1.838420 -0.986638 4.253741 -4.008800 -0.428187 -0.259265 -7.989561 -8.437228 0.859985 -7.166846 -3.761733 2.970878 -11.683505 2.271634 -9.696926 -8.812747 -1.138342 -5.289965 17.707066 -9.326890 -3.309148 -14.720569 7.983318 -0.368078 -6.310005 2.890321 -4.013823 -10.388278 -8.473506 13.908841 -14.838436 0.476696 3.120670 12.306900 10.720447 5.232781 -5.824006 
-0.004702 0.000374 -0.002031 174.649044 23.799573 -17.044474 8.079589 4.760030 7.417825 -4.440210 -16.086746 -1.630463 -7.088213 11.243877 -10.067806 6.484682 2.161187 0.916267 -6.168505 -5.361871 6.546074 5.674942 10.929540 0.268894 14.781806 -12.074877 -10.560092 -13.540691 9.487847 1.860303 1.366326 1.662266 7.498745 0.621596 -3.137661 2.030085 1.028515 -0.552145 1.502102 -0.165936 4.527509 -4.149404 -0.561465 -0.970439 -7.245748 -10.045133 0.705707 -6.506572 -5.980654 2.026786 -10.792759 1.643237 -11.240511 -8.210072 -5.875430 -4.603234 15.904763 -9.552916 -3.449158 -14.979672 9.605121 -0.386835 -6.200284 5.781147 -2.636729 -9.399482 -11.719771 18.076384 -17.981110 2.864915 2.906131 8.360472 11.373535 5.515631 -5.970720 
